<svg viewBox="80 80 240 240" xmlns="http://www.w3.org/2000/svg" role="img" aria-labelledby="title desc" focusable="false">
  <title id="title">Willem Vanhulle — Software engineer</title>
  <desc id="desc">Minimal freelance logo: a stable, asymmetric network inside a mint ring, framed by braces. Message: technically strong and reliable.</desc>
  <defs>
    <!-- Define gradients with improved contrast -->
    <linearGradient id="navyGrad" x1="0%" y1="0%" x2="100%" y2="100%">
      <stop offset="0%" style="stop-color:#030038;stop-opacity:1" />
      <stop offset="100%" style="stop-color:#05004E;stop-opacity:1" />
    </linearGradient>
    
    <linearGradient id="mintGrad" x1="0%" y1="0%" x2="100%" y2="100%">
      <stop offset="0%" style="stop-color:#7dd4b0;stop-opacity:1" />
      <stop offset="100%" style="stop-color:#5cc49a;stop-opacity:1" />
    </linearGradient>
    
    <!-- Shadow filter -->
    <filter id="shadow" x="-50%" y="-50%" width="200%" height="200%">
      <feGaussianBlur in="SourceAlpha" stdDeviation="3"/>
      <feOffset dx="0" dy="2" result="offsetblur"/>
      <feComponentTransfer>
        <feFuncA type="linear" slope="0.3"/>
      </feComponentTransfer>
      <feMerge>
        <feMergeNode/>
        <feMergeNode in="SourceGraphic"/>
      </feMerge>
    </filter>
  </defs>
  
  <!-- Main container -->
  <g transform="translate(200, 200)">
    
    <!-- Main circle -->
    <g filter="url(#shadow)">
      <!-- Central circle with stronger mint accent -->
      <circle cx="0" cy="0" r="70" fill="url(#mintGrad)"/>
  <circle cx="0" cy="0" r="60" fill="#FFFFFF" stroke="#030038" stroke-opacity="0.2" stroke-width="1.5"/>
      
      <!-- Network graph inside (distributed systems) - stable triangular topology -->
      <g stroke="#030038" stroke-width="2.5" stroke-linecap="round" fill="#030038">
        <!-- Central node -->
        <circle cx="0" cy="0" r="9"/>

        <!-- Three primary connections (robust, non-collinear) -->
  <line x1="0" y1="0" x2="36" y2="-14" opacity="0.8"/>
  <line x1="0" y1="0" x2="-22" y2="26" opacity="0.8"/>
  <line x1="0" y1="0" x2="-10" y2="-34" opacity="0.8"/>

        <!-- Triangle edges (thin peer links) -->
  <line x1="36" y1="-14" x2="-22" y2="26" opacity="0.3" stroke-width="1.5"/>
  <line x1="-22" y1="26" x2="-10" y2="-34" opacity="0.3" stroke-width="1.5"/>
  <line x1="-10" y1="-34" x2="36" y2="-14" opacity="0.3" stroke-width="1.5"/>

        <!-- Outer nodes at triangle vertices -->
  <circle cx="36" cy="-14" r="6"/>
  <circle cx="-22" cy="26" r="6"/>
  <circle cx="-10" cy="-34" r="6"/>

        <!-- Mint health dots inside the outer nodes -->
  <circle cx="36" cy="-14" r="2" fill="#5cc49a"/>
  <circle cx="-22" cy="26" r="2" fill="#5cc49a"/>
  <circle cx="-10" cy="-34" r="2" fill="#5cc49a"/>
      </g>
    </g>
    
    <!-- Vector curly braces - perfectly symmetrical -->
    <!-- Left brace -->
    <path d="M -80,-40 Q -90,-40 -90,-30 L -90,-10 Q -90,0 -100,0 Q -90,0 -90,10 L -90,30 Q -90,40 -80,40" 
          fill="none" stroke="#030038" stroke-width="5" stroke-linecap="round" opacity="0.85"/>
    
    <!-- Right brace (perfectly mirrored) -->
    <path d="M 80,-40 Q 90,-40 90,-30 L 90,-10 Q 90,0 100,0 Q 90,0 90,10 L 90,30 Q 90,40 80,40" 
          fill="none" stroke="#030038" stroke-width="5" stroke-linecap="round" opacity="0.85"/>
  </g>
</svg>