<svg viewBox="0 0 400 400" xmlns="http://www.w3.org/2000/svg">
  <defs>
    <!-- Define gradients with improved contrast -->
    <linearGradient id="navyGrad" x1="0%" y1="0%" x2="100%" y2="100%">
      <stop offset="0%" style="stop-color:#030038;stop-opacity:1" />
      <stop offset="100%" style="stop-color:#05004E;stop-opacity:1" />
    </linearGradient>
    
    <linearGradient id="mintGrad" x1="0%" y1="0%" x2="100%" y2="100%">
      <stop offset="0%" style="stop-color:#7dd4b0;stop-opacity:1" />
      <stop offset="100%" style="stop-color:#5cc49a;stop-opacity:1" />
    </linearGradient>
    
    <!-- Shadow filter -->
    <filter id="shadow" x="-50%" y="-50%" width="200%" height="200%">
      <feGaussianBlur in="SourceAlpha" stdDeviation="3"/>
      <feOffset dx="0" dy="2" result="offsetblur"/>
      <feComponentTransfer>
        <feFuncA type="linear" slope="0.3"/>
      </feComponentTransfer>
      <feMerge>
        <feMergeNode/>
        <feMergeNode in="SourceGraphic"/>
      </feMerge>
    </filter>
  </defs>
  
  <!-- Main container -->
  <g transform="translate(200, 200)">
    
    <!-- Main circle -->
    <g filter="url(#shadow)">
      <!-- Central circle with stronger mint accent -->
      <circle cx="0" cy="0" r="70" fill="url(#mintGrad)"/>
      <circle cx="0" cy="0" r="60" fill="#FFFFFF"/>
      
      <!-- Network graph inside (distributed systems) -->
      <g stroke="#030038" stroke-width="2.5" fill="#030038">
        <!-- Central node -->
        <circle cx="0" cy="0" r="9" fill="#030038"/>
        
        <!-- Connections -->
        <line x1="0" y1="0" x2="30" y2="-20" opacity="0.7"/>
        <line x1="0" y1="0" x2="30" y2="20" opacity="0.7"/>
        <line x1="0" y1="0" x2="-30" y2="-20" opacity="0.7"/>
        <line x1="0" y1="0" x2="-30" y2="20" opacity="0.7"/>
        <line x1="0" y1="0" x2="0" y2="-35" opacity="0.7"/>
        <line x1="0" y1="0" x2="0" y2="35" opacity="0.7"/>
        
        <!-- Outer nodes -->
        <circle cx="30" cy="-20" r="6"/>
        <circle cx="30" cy="20" r="6"/>
        <circle cx="-30" cy="-20" r="6"/>
        <circle cx="-30" cy="20" r="6"/>
        <circle cx="0" cy="-35" r="6"/>
        <circle cx="0" cy="35" r="6"/>
      </g>
    </g>
    
    <!-- Vector curly braces - perfectly symmetrical -->
    <!-- Left brace -->
    <path d="M -80,-40 Q -90,-40 -90,-30 L -90,-10 Q -90,0 -100,0 Q -90,0 -90,10 L -90,30 Q -90,40 -80,40" 
          fill="none" stroke="#030038" stroke-width="5" stroke-linecap="round" opacity="0.85"/>
    
    <!-- Right brace (perfectly mirrored) -->
    <path d="M 80,-40 Q 90,-40 90,-30 L 90,-10 Q 90,0 100,0 Q 90,0 90,10 L 90,30 Q 90,40 80,40" 
          fill="none" stroke="#030038" stroke-width="5" stroke-linecap="round" opacity="0.85"/>
  </g>
</svg>